<svg width="35" height="35" viewBox="0 0 35 35" fill="none" xmlns="http://www.w3.org/2000/svg">
<path d="M29 0H6C2.68629 0 0 2.68629 0 6V29C0 32.3137 2.68629 35 6 35H29C32.3137 35 35 32.3137 35 29V6C35 2.68629 32.3137 0 29 0Z" fill="url(#paint0_linear_12_262)"/>
<path d="M11.8125 23.1875H22.75V12.25H11.8125V23.1875ZM23.625 12.25H25.375V13.125H23.625V14.875H25.375V15.75H23.625V17.0625H25.375V17.9375H23.625V19.6875H25.375V20.5625H23.625V22.3125H25.375V23.1875H23.625V23.247C23.625 23.6967 23.2593 24.0625 22.8095 24.0625H22.75V25.8125H21.875V24.0625H20.125V25.8125H19.25V24.0625H17.9375V25.8125H17.0625V24.0625H15.3125V25.8125H14.4375V24.0625H12.6875V25.8125H11.8125V24.0625H11.753C11.3032 24.0625 10.9375 23.6967 10.9375 23.247V23.1875H9.625V22.3125H10.9375V20.5625H9.625V19.6875H10.9375V17.9375H9.625V17.0625H10.9375V15.75H9.625V14.875H10.9375V13.125H9.625V12.25H10.9375V12.1905C10.9375 11.7408 11.3032 11.375 11.753 11.375H11.8125V9.625H12.6875V11.375H14.4375V9.625H15.3125V11.375H17.0625V9.625H17.9375V11.375H19.25V9.625H20.125V11.375H21.875V9.625H22.75V11.375H22.8095C23.2593 11.375 23.625 11.7408 23.625 12.1905V12.25ZM17.9375 28.8207C17.9375 28.8505 17.913 28.875 17.8833 28.875H6.17925C6.1495 28.875 6.125 28.8505 6.125 28.8207V17.1167C6.125 17.087 6.1495 17.0625 6.17925 17.0625H8.75V16.1875H6.17925C5.66694 16.1875 5.25 16.6044 5.25 17.1167V28.8207C5.25 29.3331 5.66694 29.75 6.17925 29.75H17.8833C18.3956 29.75 18.8125 29.3331 18.8125 28.8207V26.6875H17.9375V28.8207ZM29.75 6.17925V17.8833C29.75 18.3956 29.3331 18.8125 28.8207 18.8125H26.25V17.9375H28.8207C28.8505 17.9375 28.875 17.913 28.875 17.8833V6.17925C28.875 6.1495 28.8505 6.125 28.8207 6.125H17.1167C17.087 6.125 17.0625 6.1495 17.0625 6.17925V8.75H16.1875V6.17925C16.1875 5.66694 16.6044 5.25 17.1167 5.25H28.8207C29.3331 5.25 29.75 5.66694 29.75 6.17925Z" fill="white"/>
<defs>
<linearGradient id="paint0_linear_12_262" x1="0" y1="3500" x2="3500" y2="0" gradientUnits="userSpaceOnUse">
<stop stop-color="#C8511B"/>
<stop offset="1" stop-color="#FF9900"/>
</linearGradient>
</defs>
</svg>
