<svg width="24" height="35" viewBox="0 0 24 35" fill="none" xmlns="http://www.w3.org/2000/svg">
<path d="M5.83334 35C9.05334 35 11.6667 32.3867 11.6667 29.1666V23.3333H5.83334C2.61333 23.3333 0 25.9466 0 29.1666C0 32.3867 2.61333 35 5.83334 35Z" fill="#0ACF83"/>
<path d="M0 17.5C0 14.28 2.61333 11.6667 5.83334 11.6667H11.6667V23.3333H5.83334C2.61333 23.3333 0 20.72 0 17.5Z" fill="#A259FF"/>
<path d="M0 5.83334C0 2.61333 2.61333 0 5.83334 0H11.6667V11.6667H5.83334C2.61333 11.6667 0 9.05334 0 5.83334Z" fill="#F24E1E"/>
<path d="M11.6667 0H17.5001C20.7201 0 23.3334 2.61333 23.3334 5.83334C23.3334 9.05334 20.7201 11.6667 17.5001 11.6667H11.6667V0Z" fill="#FF7262"/>
<path d="M23.3334 17.5C23.3334 20.72 20.7201 23.3333 17.5001 23.3333C14.2801 23.3333 11.6667 20.72 11.6667 17.5C11.6667 14.28 14.2801 11.6667 17.5001 11.6667C20.7201 11.6667 23.3334 14.28 23.3334 17.5Z" fill="#1ABCFE"/>
</svg>
