<svg width="40" height="40" viewBox="0 0 40 40" fill="none" xmlns="http://www.w3.org/2000/svg">
<g clip-path="url(#clip0_40_700)">
<path d="M14.9999 31.6667C6.66658 34.1667 6.66659 27.5 3.33325 26.6667M26.6666 36.6667V30.2167C26.7291 29.4219 26.6217 28.623 26.3516 27.873C26.0815 27.123 25.6548 26.439 25.0999 25.8667C30.3333 25.2833 35.8333 23.3 35.8333 14.2C35.8328 11.873 34.9377 9.63533 33.3333 7.95C34.093 5.91418 34.0393 3.66391 33.1833 1.66666C33.1833 1.66666 31.2166 1.08333 26.6666 4.13333C22.8466 3.09803 18.8199 3.09803 14.9999 4.13333C10.4499 1.08333 8.48325 1.66666 8.48325 1.66666C7.62721 3.66391 7.57349 5.91418 8.33325 7.95C6.7168 9.64783 5.82079 11.9058 5.83325 14.25C5.83325 23.2833 11.3333 25.2667 16.5666 25.9167C16.0182 26.4833 15.5954 27.159 15.3254 27.8999C15.0555 28.6407 14.9446 29.4301 14.9999 30.2167V36.6667" stroke="#1E1E1E" stroke-width="3.5" stroke-linecap="round" stroke-linejoin="round"/>
</g>
<defs>
<clipPath id="clip0_40_700">
<rect width="40" height="40" fill="white"/>
</clipPath>
</defs>
</svg>
