<svg width="18" height="19" viewBox="0 0 18 19" fill="none" xmlns="http://www.w3.org/2000/svg">
<path fill-rule="evenodd" clip-rule="evenodd" d="M15.5979 7.86386L17.0738 15.5197C17.1295 15.8089 17.0631 16.0941 16.9104 16.3207C16.7577 16.5474 16.5189 16.7154 16.2309 16.7709L5.17484 18.9031C4.88687 18.9586 4.60268 18.8914 4.37671 18.7378C4.15074 18.5841 3.983 18.3441 3.92724 18.0548L2.45139 10.399L1.09092 10.6613C0.908026 10.6966 0.727374 10.6787 0.565285 10.6147C0.399672 10.5497 0.256611 10.4378 0.154038 10.2854C0.0495401 10.1318 0.000130762 9.95746 0.00617605 9.78166C0.0117291 9.60763 0.0703038 9.43674 0.182748 9.2864L1.75159 7.18332C1.7734 7.15405 1.78833 7.1236 1.79493 7.09309C1.80153 7.06257 1.80173 7.02911 1.79459 6.99205L1.18705 3.84051C1.14589 3.62701 1.19509 3.41615 1.30766 3.24908C1.42021 3.082 1.59596 2.95787 1.80852 2.91689L3.42568 2.60514C3.63826 2.56416 3.84836 2.6139 4.01494 2.72719C4.18154 2.84046 4.30545 3.01711 4.34676 3.23139L4.41913 3.60681L6.72126 0.520874C6.86474 0.32861 7.07317 0.205719 7.29616 0.162732C7.51915 0.119744 7.75834 0.156355 7.96299 0.281498L17.292 5.98725C17.4515 6.08518 17.5702 6.2219 17.6401 6.38138C17.7102 6.54249 17.7291 6.72267 17.6901 6.904C17.6507 7.08372 17.5595 7.24083 17.4307 7.3626C17.304 7.48227 17.1429 7.56597 16.96 7.60122L15.5979 7.86386Z" fill="#FF9900"/>
</svg>
