<svg width="35" height="35" viewBox="0 0 35 35" fill="none" xmlns="http://www.w3.org/2000/svg">
<path d="M0 6C0 2.68629 2.68629 0 6 0H29C32.3137 0 35 2.68629 35 6V29C35 32.3137 32.3137 35 29 35H6C2.68629 35 0 32.3137 0 29V6Z" fill="#F7DF1E"/>
<path d="M9.20269 29.2486L11.8811 27.6276C12.3979 28.5438 12.8679 29.3189 13.9954 29.3189C15.0762 29.3189 15.7576 28.8962 15.7576 27.2517V16.0684H19.0467V27.2982C19.0467 30.7049 17.0498 32.2555 14.1364 32.2555C11.5052 32.2555 9.97791 30.8928 9.20264 29.2483" fill="black"/>
<path d="M20.8335 28.8961L23.5116 27.3455C24.2166 28.4968 25.1329 29.3426 26.7539 29.3426C28.1167 29.3426 28.9858 28.6612 28.9858 27.7214C28.9858 26.5937 28.0931 26.1942 26.5894 25.5366L25.7673 25.184C23.3943 24.1739 21.8201 22.9052 21.8201 20.2268C21.8201 17.76 23.6996 15.8803 26.6365 15.8803C28.7275 15.8803 30.2311 16.6087 31.3117 18.5118L28.7508 20.1563C28.1869 19.1461 27.5763 18.7468 26.6366 18.7468C25.6733 18.7468 25.0624 19.3576 25.0624 20.1563C25.0624 21.1431 25.6733 21.5426 27.0828 22.1535L27.905 22.5058C30.7008 23.7041 32.275 24.9257 32.275 27.6744C32.275 30.6348 29.9491 32.2558 26.8244 32.2558C23.7702 32.2558 21.7966 30.7992 20.8335 28.8961Z" fill="black"/>
</svg>
