<svg width="20" height="17" viewBox="0 0 20 17" fill="none" xmlns="http://www.w3.org/2000/svg">
<path d="M19.9751 0.199253L20 0.193761V0H14.9175L10.1982 11.1527L5.47888 0H0.00182307V0.193761L0.0264012 0.199253C0.954114 0.409797 1.4251 0.723781 1.4251 1.85614V15.1127C1.4251 16.2451 0.952295 16.5591 0.0245821 16.7696L0 16.7751V16.9695H3.71601V16.7757L3.69143 16.7702C2.76372 16.5597 2.29273 16.2457 2.29273 15.1133V2.62508L8.35518 16.9695H8.69902L14.9381 2.22505V15.4408C14.8586 16.3351 14.3918 16.6113 13.5518 16.802L13.5269 16.8078V17H20V16.8078L19.9751 16.802C19.1342 16.6113 18.6562 16.3351 18.5767 15.4408L18.5725 1.85614H18.5767C18.5767 0.723781 19.0477 0.409797 19.9751 0.199253Z" fill="black"/>
</svg>
