<svg width="31" height="35" viewBox="0 0 31 35" fill="none" xmlns="http://www.w3.org/2000/svg">
<path d="M15.5 34.9312C15.0186 34.9312 14.5694 34.8028 14.1522 34.5782L9.88406 32.043C9.24224 31.69 9.56315 31.5616 9.75569 31.4974C10.6222 31.2086 10.7826 31.1444 11.6812 30.631C11.7774 30.5668 11.9058 30.5989 12.0021 30.663L15.2754 32.6206C15.4037 32.6848 15.5642 32.6848 15.6605 32.6206L28.4648 25.2076C28.5932 25.1434 28.6574 25.015 28.6574 24.8546V10.0606C28.6574 9.9001 28.5932 9.77174 28.4648 9.70756L15.6605 2.3266C15.5321 2.26242 15.3716 2.26242 15.2754 2.3266L2.47101 9.70756C2.34265 9.77174 2.27847 9.93219 2.27847 10.0606V24.8546C2.27847 24.9829 2.34265 25.1434 2.47101 25.2076L5.96894 27.2293C7.86232 28.192 9.04969 27.0688 9.04969 25.9457V11.3442C9.04969 11.1517 9.21014 10.9591 9.43478 10.9591H11.0714C11.264 10.9591 11.4565 11.1196 11.4565 11.3442V25.9457C11.4565 28.4808 10.0766 29.957 7.66977 29.957C6.93168 29.957 6.35404 29.957 4.71739 29.1548L1.34783 27.2293C0.513458 26.7479 0 25.8494 0 24.8866V10.0927C0 9.12992 0.513458 8.23137 1.34783 7.75L14.1522 0.336956C14.9545 -0.112319 16.0455 -0.112319 16.8478 0.336956L29.6522 7.75C30.4865 8.23137 31 9.12992 31 10.0927V24.8866C31 25.8494 30.4865 26.7479 29.6522 27.2293L16.8478 34.6423C16.4306 34.8349 15.9493 34.9312 15.5 34.9312ZM19.4472 24.7583C13.8313 24.7583 12.676 22.191 12.676 20.0088C12.676 19.8163 12.8364 19.6237 13.0611 19.6237H14.7298C14.9224 19.6237 15.0828 19.7521 15.0828 19.9446C15.3395 21.6454 16.0776 22.4798 19.4793 22.4798C22.1749 22.4798 23.3302 21.8701 23.3302 20.426C23.3302 19.5916 23.0093 18.9819 18.8054 18.5647C15.3075 18.2117 13.1253 17.4415 13.1253 14.6496C13.1253 12.0502 15.3075 10.5098 18.9658 10.5098C23.0735 10.5098 25.0952 11.9218 25.352 15.0026C25.352 15.0989 25.3199 15.1951 25.2557 15.2914C25.1915 15.3556 25.0952 15.4198 24.999 15.4198H23.3302C23.1698 15.4198 23.0093 15.2914 22.9772 15.131C22.5921 13.3659 21.5973 12.7883 18.9658 12.7883C16.0135 12.7883 15.6605 13.8152 15.6605 14.5854C15.6605 15.516 16.0776 15.8049 20.0569 16.3183C24.0041 16.8318 25.8654 17.5699 25.8654 20.3297C25.8333 23.1537 23.5228 24.7583 19.4472 24.7583Z" fill="#539E43"/>
</svg>
