<svg width="36" height="38" viewBox="0 0 36 38" fill="none" xmlns="http://www.w3.org/2000/svg">
<path d="M35.9047 22.2124C35.6884 21.5578 35.1216 21.1018 34.3885 20.9923C34.0429 20.9407 33.647 20.9627 33.1787 21.0592C32.3623 21.2275 31.7565 21.2915 31.3145 21.304C32.983 18.4894 34.3398 15.2798 35.1208 12.2584C36.3838 7.37318 35.7089 5.14761 34.9202 4.14086C32.833 1.47641 29.7879 0.0449367 26.114 0.00105653C24.1543 -0.0228403 22.4337 0.363755 21.5363 0.64169C20.7007 0.49448 19.8021 0.412215 18.8592 0.396977C17.0922 0.368834 15.5307 0.753681 14.1965 1.54469C13.4577 1.29523 12.2723 0.94344 10.9033 0.718876C7.68334 0.190732 5.08828 0.602307 3.19012 1.94203C0.891582 3.56418 -0.174012 6.3825 0.023089 10.3188C0.0855945 11.5686 0.785406 15.371 1.88717 18.9773C2.52039 21.05 3.19562 22.7713 3.89409 24.0937C4.8846 25.9689 5.94444 27.0732 7.1343 27.4697C7.80127 27.6918 9.01296 27.8472 10.2875 26.7869C10.449 26.9822 10.6644 27.1765 10.9505 27.3568C11.3137 27.5857 11.7579 27.7727 12.2015 27.8835C13.8002 28.2829 15.2977 28.183 16.5752 27.6233C16.583 27.8503 16.5891 28.0672 16.5943 28.2545C16.6028 28.5583 16.6111 28.8561 16.6223 29.1347C16.698 31.0183 16.8262 32.4828 17.2063 33.5074C17.2271 33.5639 17.2552 33.6497 17.2849 33.7407C17.4744 34.3208 17.7915 35.2916 18.598 36.0521C19.4333 36.8397 20.4435 37.0813 21.3688 37.0812C21.8328 37.0812 22.2756 37.0204 22.6639 36.9373C24.0483 36.6409 25.6204 36.1893 26.7577 34.5715C27.8329 33.042 28.3556 30.7384 28.4502 27.1086C28.4624 27.006 28.4737 26.908 28.4847 26.8146C28.492 26.7516 28.4995 26.6871 28.5071 26.6228L28.7604 26.6451L28.8257 26.6495C30.2357 26.7137 31.9596 26.4149 33.0184 25.9236C33.8551 25.5357 36.536 24.1217 35.9047 22.2124Z" fill="black"/>
<path d="M33.4937 22.5838C29.3015 23.4477 29.0133 22.0296 29.0133 22.0296C33.4397 15.4678 35.29 7.13844 33.6932 5.09989C29.337 -0.460905 21.7961 2.16899 21.6703 2.23727L21.6298 2.24451C20.8015 2.07274 19.8746 1.97041 18.8329 1.95342C16.936 1.92236 15.4971 2.45026 14.4052 3.27749C14.4052 3.27749 0.953145 -2.25916 1.57878 10.2409C1.71188 12.9002 5.39378 30.3622 9.78542 25.0878C11.3906 23.1592 12.9414 21.5285 12.9414 21.5285C13.7118 22.0397 14.6339 22.3005 15.6007 22.2068L15.6758 22.1431C15.6524 22.3826 15.6631 22.6168 15.7059 22.8941C14.5745 24.157 14.9069 24.3787 12.6453 24.8438C10.3569 25.315 11.7013 26.1539 12.579 26.3731C13.6431 26.639 16.1049 27.0156 17.7683 24.6892L17.7019 24.9546C18.1452 25.3093 18.4565 27.262 18.4043 29.032C18.3522 30.8021 18.3173 32.0173 18.6666 32.9665C19.0159 33.9158 19.364 36.0515 22.3371 35.415C24.8214 34.8831 26.1088 33.5048 26.2879 31.2056C26.415 29.571 26.7026 29.8127 26.7207 28.3513L26.9514 27.6595C27.2174 25.4437 26.9937 24.7289 28.5242 25.0614L28.8962 25.094C30.0227 25.1452 31.4971 24.913 32.3624 24.5112C34.2257 23.6472 35.3308 22.2047 33.4936 22.5838H33.4937Z" fill="#336791"/>
<path d="M15.193 11.4301C14.8153 11.3776 14.4731 11.4262 14.3 11.5571C14.2026 11.6308 14.1725 11.7162 14.1644 11.7749C14.1427 11.9306 14.2519 12.1026 14.3189 12.1913C14.5086 12.4425 14.7857 12.6152 15.0601 12.6533C15.0999 12.6588 15.1394 12.6614 15.1787 12.6614C15.6362 12.6614 16.0521 12.3056 16.0888 12.0429C16.1346 11.7139 15.6566 11.4946 15.193 11.4301Z" fill="white"/>
<path d="M27.7081 11.4405C27.6721 11.1827 27.2126 11.1091 26.7768 11.1697C26.3416 11.2303 25.9194 11.4265 25.9547 11.685C25.983 11.886 26.3462 12.2291 26.7762 12.229C26.8124 12.229 26.8491 12.2266 26.886 12.2215C27.1731 12.1818 27.3837 11.9997 27.4837 11.8947C27.6361 11.7348 27.7242 11.5564 27.7081 11.4405Z" fill="white"/>
<path d="M34.889 22.4856C34.7292 22.0027 34.2147 21.8472 33.3599 22.0237C30.8218 22.547 29.9129 22.1845 29.6144 21.9649C31.5872 18.9622 33.2101 15.3328 34.0856 11.9464C34.5004 10.3423 34.7295 8.85263 34.7482 7.63847C34.7689 6.30558 34.5418 5.32631 34.0731 4.72806C32.1839 2.31623 29.4112 1.02256 26.0548 0.987002C23.7475 0.961107 21.798 1.55112 21.42 1.71698C20.6241 1.51923 19.7565 1.39783 18.812 1.38234C17.0797 1.35436 15.5825 1.76869 14.3428 2.61315C13.8044 2.41298 12.4127 1.93571 10.711 1.66186C7.76874 1.1885 5.43079 1.54712 3.76231 2.72805C1.77147 4.13722 0.852386 6.65612 1.03049 10.2147C1.09041 11.412 1.77313 15.095 2.85073 18.6223C4.2691 23.2646 5.81082 25.8928 7.43313 26.4333C7.62298 26.4966 7.842 26.5409 8.08335 26.5409C8.67515 26.5409 9.40063 26.2744 10.1555 25.3677C11.4094 23.8606 12.5801 22.5978 13.0116 22.1389C13.6493 22.481 14.3498 22.6719 15.0665 22.691C15.0677 22.7098 15.0696 22.7285 15.0713 22.7472C14.9275 22.9175 14.8096 23.0668 14.7091 23.1943C14.2126 23.8239 14.1093 23.955 12.5112 24.2838C12.0566 24.3775 10.8491 24.6261 10.8315 25.4716C10.8123 26.3955 12.2586 26.7835 12.4235 26.8246C12.9978 26.9682 13.551 27.0391 14.0786 27.0391C15.3619 27.039 16.4911 26.6177 17.3936 25.8024C17.3657 29.096 17.5033 32.3413 17.899 33.3302C18.2232 34.1396 19.0151 36.118 21.5168 36.1178C21.8837 36.1178 22.2878 36.0752 22.7323 35.98C25.343 35.4207 26.4767 34.2679 26.9153 31.7264C27.15 30.3681 27.5528 27.1244 27.7422 25.3846C28.1419 25.5092 28.6567 25.5662 29.213 25.5661C30.3735 25.5661 31.7124 25.3198 32.5522 24.9304C33.4954 24.4928 35.1977 23.4187 34.889 22.4856ZM28.6717 10.7287C28.6631 11.2424 28.5923 11.7087 28.5173 12.1954C28.4366 12.7189 28.3531 13.2601 28.3321 13.9172C28.3114 14.5566 28.3913 15.2213 28.4686 15.8641C28.6248 17.1626 28.7851 18.4994 28.1646 19.8184C28.0682 19.6473 27.9751 19.4606 27.8898 19.2539C27.8127 19.0671 27.6452 18.7671 27.4135 18.3519C26.5114 16.7357 24.399 12.9511 25.4804 11.4067C25.8024 10.9469 26.6198 10.4744 28.6717 10.7287ZM26.1846 2.02714C29.1919 2.0935 31.5707 3.21748 33.255 5.36769C34.5468 7.01699 33.1243 14.5216 29.0063 20.9958C28.9657 20.9442 28.9243 20.892 28.8814 20.8386C28.8643 20.8172 28.8469 20.7954 28.8293 20.7735C29.8934 19.0177 29.6853 17.2805 29.5001 15.7403C29.4241 15.1083 29.3522 14.5113 29.3705 13.9506C29.3894 13.356 29.4681 12.8464 29.5441 12.3535C29.6377 11.746 29.7327 11.1175 29.7065 10.3765C29.7261 10.2988 29.734 10.207 29.7237 10.098C29.6567 9.38743 28.8448 7.26112 27.1899 5.3363C26.2847 4.28368 24.9645 3.10557 23.162 2.31098C23.9373 2.15045 24.9976 2.00074 26.1846 2.02714ZM9.35671 24.7041C8.52506 25.7031 7.95067 25.5117 7.76182 25.4488C6.53113 25.0387 5.10326 22.4401 3.84431 18.3193C2.75497 14.7536 2.11833 11.1682 2.06799 10.1628C1.9089 6.9831 2.68038 4.76702 4.36111 3.57618C7.09635 1.63821 11.5934 2.79816 13.4004 3.38651C13.3744 3.41207 13.3474 3.43605 13.3216 3.46203C10.3565 6.45396 10.4268 11.5657 10.4341 11.8781C10.4338 11.9987 10.4439 12.1694 10.4578 12.4042C10.5088 13.2639 10.6037 14.864 10.3501 16.6762C10.1144 18.3601 10.6339 20.0083 11.7753 21.1982C11.8935 21.3213 12.0169 21.437 12.1443 21.5458C11.6362 22.0895 10.532 23.2915 9.35671 24.7041ZM12.5254 20.48C11.6054 19.5211 11.1876 18.1871 11.379 16.8199C11.6468 14.9056 11.5479 13.2384 11.4948 12.3427C11.4874 12.2174 11.4808 12.1076 11.4769 12.0209C11.9101 11.6372 13.9175 10.5625 15.3491 10.8903C16.0025 11.0398 16.4004 11.4842 16.5659 12.2487C17.4225 16.2065 16.6794 17.8561 16.0822 19.1817C15.9591 19.4548 15.8429 19.7129 15.7435 19.98L15.6666 20.1864C15.4717 20.7084 15.2905 21.1937 15.1781 21.6546C14.2002 21.6516 13.2488 21.2342 12.5254 20.48ZM12.6755 25.8177C12.39 25.7464 12.1331 25.6226 11.9824 25.5199C12.1083 25.4607 12.3323 25.3803 12.7208 25.3004C14.6008 24.9136 14.8911 24.6407 15.5252 23.8364C15.6706 23.6521 15.8354 23.443 16.0636 23.1884L16.0638 23.188C16.4037 22.8079 16.5592 22.8723 16.8411 22.9891C17.0696 23.0836 17.2922 23.3697 17.3824 23.6846C17.4251 23.8333 17.4731 24.1157 17.3162 24.3353C15.9916 26.188 14.0616 26.1642 12.6755 25.8177ZM22.5145 34.9652C20.2146 35.4575 19.4003 34.2851 18.8636 32.9448C18.5173 32.0794 18.3471 28.1774 18.4678 23.8684C18.4694 23.811 18.4613 23.7556 18.4454 23.7036C18.4317 23.6031 18.4105 23.5014 18.3812 23.3991C18.2015 22.7721 17.7639 22.2477 17.2388 22.0303C17.0302 21.9439 16.6473 21.7855 16.1871 21.903C16.2853 21.4991 16.4555 21.0431 16.6399 20.5491L16.7174 20.3413C16.8045 20.1071 16.9138 19.8645 17.0295 19.6077C17.6544 18.2207 18.5102 16.321 17.5813 12.0293C17.2334 10.4219 16.0716 9.63698 14.3104 9.81924C13.2545 9.9284 12.2886 10.354 11.8068 10.5981C11.7032 10.6505 11.6084 10.7012 11.5199 10.7505C11.6543 9.1309 12.1625 6.10416 14.063 4.18917C15.2595 2.98351 16.8531 2.38809 18.7948 2.42014C22.6205 2.48276 25.0738 4.44429 26.4584 6.07885C27.6514 7.48743 28.2975 8.90625 28.5553 9.67145C26.6164 9.47453 25.2977 9.85696 24.6291 10.8117C23.1748 12.8887 25.4248 16.92 26.5061 18.8574C26.7044 19.2125 26.8756 19.5193 26.9294 19.6497C27.2815 20.5024 27.7374 21.0715 28.0703 21.4871C28.1723 21.6144 28.2713 21.7379 28.3465 21.8457C27.7593 22.0149 26.7045 22.4057 26.8006 24.3591C26.7231 25.3394 26.1717 29.9286 25.8917 31.55C25.522 33.6921 24.733 34.49 22.5145 34.9652ZM32.1147 23.989C31.5142 24.2676 30.5093 24.4765 29.5546 24.5213C28.5002 24.5706 27.9635 24.4033 27.8372 24.3004C27.7779 23.083 28.2315 22.9558 28.7115 22.8212C28.7869 22.7999 28.8605 22.7794 28.9315 22.7546C28.9757 22.7905 29.024 22.8261 29.0769 22.861C29.9244 23.4198 31.4361 23.4801 33.57 23.0401C33.5778 23.0384 33.5857 23.0369 33.5934 23.0353C33.3056 23.3042 32.8131 23.6651 32.1147 23.989Z" fill="white"/>
</svg>
