<svg width="40" height="36" viewBox="0 0 40 36" fill="none" xmlns="http://www.w3.org/2000/svg">
<path d="M32.888 11.3884C32.4731 11.2474 32.0431 11.114 31.6004 10.9878C31.6732 10.6946 31.7399 10.4052 31.7993 10.1207C32.774 5.44939 32.1367 1.68615 29.9605 0.447136C27.8738 -0.740919 24.4611 0.497819 21.0145 3.4592C20.6831 3.74397 20.3507 4.04546 20.0185 4.36144C19.7972 4.15238 19.5762 3.95035 19.3557 3.75711C15.7436 0.590608 12.1229 -0.743801 9.94884 0.498803C7.86412 1.6903 7.24675 5.22811 8.12414 9.65514C8.20887 10.0827 8.30791 10.5194 8.41991 10.9634C7.90748 11.107 7.41279 11.2601 6.93946 11.423C2.70458 12.8807 0 15.1653 0 17.535C0 19.9824 2.90337 22.4373 7.31432 23.9258C7.66241 24.0432 8.02361 24.1543 8.39584 24.2598C8.27502 24.7399 8.16992 25.2105 8.08171 25.6695C7.24511 30.0197 7.89844 33.4739 9.97761 34.6579C12.1252 35.8806 15.7295 34.6238 19.2391 31.5949C19.5165 31.3555 19.7949 31.1016 20.0738 30.8354C20.4352 31.1791 20.7962 31.5043 21.1551 31.8094C24.5546 34.6976 27.9122 35.8639 29.9894 34.6766C32.1349 33.4504 32.8321 29.7397 31.9269 25.2251C31.8578 24.8803 31.7773 24.5281 31.687 24.1696C31.9401 24.0957 32.1886 24.0194 32.4309 23.9401C37.0165 22.4401 40 20.0151 40 17.535C40 15.1567 37.2082 12.8567 32.888 11.3884ZM31.8934 22.3387C31.6747 22.4102 31.4503 22.4793 31.2216 22.5463C30.7154 20.964 30.0321 19.2815 29.1961 17.5432C29.9939 15.8463 30.6507 14.1853 31.1428 12.6133C31.552 12.7302 31.9491 12.8535 32.3318 12.9836C36.0333 14.2417 38.2912 16.1017 38.2912 17.535C38.2912 19.0617 35.8528 21.0435 31.8934 22.3387ZM30.2506 25.5528C30.6509 27.5491 30.708 29.354 30.4429 30.7649C30.2047 32.0328 29.7256 32.8781 29.1332 33.2166C27.8726 33.937 25.1768 33.0006 22.2696 30.5306C21.9363 30.2474 21.6006 29.9451 21.2638 29.6251C22.3909 28.4081 23.5173 26.9932 24.6167 25.4219C26.5504 25.2525 28.3773 24.9756 30.0341 24.5975C30.1157 24.9224 30.1881 25.2411 30.2506 25.5528ZM13.6369 33.0921C12.4053 33.5215 11.4244 33.5338 10.8314 33.1963C9.56971 32.4778 9.04518 29.7044 9.76066 25.9841C9.84261 25.558 9.94016 25.1204 10.0526 24.673C11.6912 25.0307 13.5047 25.2882 15.443 25.4433C16.5498 26.9809 17.7088 28.3942 18.8768 29.6316C18.6216 29.8748 18.3674 30.1064 18.1146 30.3246C16.5627 31.6639 15.0075 32.6142 13.6369 33.0921ZM7.86697 22.3294C5.91653 21.6712 4.30579 20.8158 3.2017 19.8823C2.2096 19.0435 1.70872 18.2107 1.70872 17.535C1.70872 16.097 3.88023 14.2628 7.50193 13.0161C7.94137 12.8648 8.40139 12.7222 8.87879 12.5883C9.37932 14.1958 10.0359 15.8765 10.8283 17.576C10.0257 19.3008 9.35974 21.0083 8.85429 22.6346C8.51396 22.538 8.18424 22.4364 7.86697 22.3294ZM9.8011 9.33115C9.04938 5.53818 9.54863 2.67689 10.8049 1.9589C12.1431 1.19402 15.1023 2.28458 18.2211 5.0187C18.4204 5.19345 18.6206 5.37636 18.8213 5.56559C17.6591 6.79765 16.5107 8.20032 15.4138 9.72881C13.5325 9.90096 11.7317 10.1775 10.0761 10.5478C9.97198 10.1344 9.87978 9.72825 9.8011 9.33115ZM27.0553 13.5375C26.6595 12.8626 26.2532 12.2035 25.8389 11.5625C27.1152 11.7218 28.338 11.9333 29.4863 12.192C29.1415 13.2828 28.7118 14.4234 28.206 15.5926C27.8432 14.9125 27.4594 14.2268 27.0553 13.5375ZM20.0191 6.77129C20.8073 7.61434 21.5966 8.55559 22.3729 9.57683C21.5906 9.54035 20.7986 9.52137 20 9.52137C19.209 9.52137 18.4228 9.53993 17.6453 9.57578C18.4224 8.56402 19.2186 7.62404 20.0191 6.77129ZM12.9378 13.5492C12.5424 14.2261 12.1658 14.9081 11.8086 15.5913C11.311 14.4262 10.8853 13.2805 10.5376 12.1742C11.6788 11.922 12.8959 11.7158 14.164 11.5596C13.7439 12.2065 13.3342 12.8705 12.9378 13.5492ZM14.2005 23.6308C12.8903 23.4864 11.655 23.2909 10.514 23.0457C10.8673 21.9196 11.3024 20.7494 11.8106 19.5592C12.1686 20.242 12.5468 20.9243 12.9446 21.6026C13.3498 22.2937 13.7696 22.9706 14.2005 23.6308ZM20.0664 28.4176C19.2565 27.5549 18.4486 26.6006 17.6597 25.5741C18.4256 25.6037 19.2064 25.6189 20 25.6189C20.8153 25.6189 21.6213 25.6008 22.4146 25.5659C21.6357 26.6109 20.8492 27.5667 20.0664 28.4176ZM28.2223 19.4985C28.757 20.7016 29.2077 21.8657 29.5655 22.9726C28.4057 23.2338 27.1536 23.4442 25.8342 23.6005C26.2495 22.9509 26.6594 22.2805 27.0621 21.591C27.4696 20.8934 27.8565 20.1947 28.2223 19.4985ZM25.582 20.7482C24.9567 21.8186 24.3148 22.8404 23.6631 23.8049C22.4761 23.8887 21.2498 23.9318 20 23.9318C18.7552 23.9318 17.5444 23.8937 16.3784 23.8189C15.7005 22.8418 15.0446 21.8169 14.4233 20.7574C13.8037 19.7007 13.2335 18.6351 12.7167 17.5755C13.2333 16.5134 13.8022 15.4466 14.4182 14.3918L14.4181 14.392C15.0358 13.3344 15.686 12.3146 16.3576 11.3436C17.5473 11.2548 18.7671 11.2084 19.9999 11.2084C21.2383 11.2084 22.4598 11.2551 23.649 11.3447C24.3105 12.3086 24.9562 13.3252 25.5763 14.3829C26.2035 15.4525 26.7797 16.5122 27.3007 17.5515C26.7813 18.6087 26.2064 19.6791 25.582 20.7482ZM29.107 1.90871C30.4465 2.67134 30.9674 5.74702 30.1258 9.78019C30.0721 10.0375 30.0116 10.2997 29.946 10.5653C28.2865 10.1873 26.4844 9.90595 24.5977 9.7312C23.4986 8.1859 22.3596 6.78106 21.2164 5.56482C21.5237 5.27288 21.8307 4.99451 22.1363 4.73182C25.0894 2.19453 27.8495 1.19275 29.107 1.90871ZM20 14.0085C21.9727 14.0085 23.5719 15.5873 23.5719 17.535C23.5719 19.4826 21.9727 21.0615 20 21.0615C18.0273 21.0615 16.4281 19.4826 16.4281 17.535C16.4281 15.5873 18.0273 14.0085 20 14.0085Z" fill="#00D8FF"/>
</svg>
