<svg width="35" height="35" viewBox="0 0 35 35" fill="none" xmlns="http://www.w3.org/2000/svg">
<path d="M29 0H6C2.68629 0 0 2.68629 0 6V29C0 32.3137 2.68629 35 6 35H29C32.3137 35 35 32.3137 35 29V6C35 2.68629 32.3137 0 29 0Z" fill="url(#paint0_linear_12_268)"/>
<path d="M21.3028 17.7973C21.6261 18.0962 21.7879 18.4967 21.7879 18.9996C21.7879 19.5466 21.5911 19.9834 21.1978 20.3099C20.804 20.6369 20.2751 20.8001 19.6114 20.8001C19.0868 20.8001 18.5675 20.6881 18.0539 20.4649V19.7948C18.6624 19.9961 19.1813 20.0964 19.6114 20.0964C20.0358 20.0964 20.3621 20.0014 20.5909 19.8119C20.8198 19.6219 20.9339 19.351 20.9339 18.9996C20.9339 18.3238 20.5074 17.9859 19.6529 17.9859C19.3852 17.9859 19.1201 17.9999 18.8576 18.0275V17.4752L20.6163 15.5569H18.1379V14.8702H21.5456V15.5319L19.8205 17.3579C19.8489 17.3522 19.8761 17.3496 19.9045 17.3496H19.9881C20.5411 17.3496 20.979 17.4988 21.3028 17.7973ZM16.4386 17.6511C16.7786 17.9693 16.9488 18.4074 16.9488 18.9654C16.9488 19.5129 16.751 19.9554 16.3542 20.2933C15.9578 20.6312 15.4363 20.8001 14.7888 20.8001C14.2201 20.8001 13.6868 20.6881 13.1898 20.4649V19.7948C13.8093 19.9961 14.3395 20.0964 14.7805 20.0964C15.2049 20.0964 15.5299 20.0005 15.7557 19.8075C15.9819 19.6149 16.0952 19.3374 16.0952 18.9742C16.0952 18.5776 15.9889 18.2901 15.7767 18.1115C15.5645 17.933 15.2184 17.8432 14.7385 17.8432C14.3924 17.8432 13.9602 17.8717 13.4409 17.9273V17.3745L13.6001 14.8702H16.6561V15.5569H14.3032L14.1942 17.2572C14.5014 17.2016 14.7774 17.1736 15.0229 17.1736C15.6257 17.1736 16.0978 17.3325 16.4386 17.6511ZM22.7312 23.7903C20.6076 24.1719 18.7477 25.0368 17.5 25.7414C16.2518 25.0368 14.392 24.1719 12.2688 23.7903C11.6712 23.683 8.69269 23.0611 8.69269 21.3393C8.69269 20.5415 8.97837 20.0123 9.527 19.0674C10.1824 17.9373 10.9979 16.5307 10.9979 14.5056C10.9979 13.0582 10.6186 11.6704 9.86956 10.3753C9.9575 10.2668 10.0472 10.1569 10.1373 10.0462C11.2468 10.6007 12.4018 10.8817 13.5761 10.8817C15.0111 10.8817 16.3297 10.5049 17.5 9.76126C18.6699 10.5049 19.9885 10.8817 21.4235 10.8817C22.5978 10.8817 23.7532 10.6007 24.8627 10.0462C24.9524 10.1569 25.0421 10.2668 25.13 10.3753C24.381 11.6704 24.0017 13.0582 24.0017 14.5056C24.0017 16.5307 24.8172 17.9373 25.4739 19.0691C26.0212 20.0123 26.3069 20.5415 26.3069 21.3393C26.3069 23.0611 23.3284 23.683 22.7312 23.7903ZM24.8767 14.5056C24.8767 13.1239 25.2665 11.7995 26.0343 10.5692C26.1341 10.4103 26.1214 10.2059 26.0024 10.0606C25.7801 9.7884 25.5469 9.50173 25.3168 9.2168C25.1834 9.0518 24.9515 9.00629 24.7651 9.1087C23.6876 9.70437 22.5636 10.0064 21.4235 10.0064C20.048 10.0064 18.8462 9.63653 17.7489 8.8763C17.5993 8.77257 17.4003 8.77257 17.2506 8.8763C16.1534 9.63653 14.9516 10.0064 13.5761 10.0064C12.4359 10.0064 11.312 9.70437 10.2344 9.1087C10.0485 9.00629 9.81619 9.0518 9.68275 9.2168C9.45263 9.50173 9.21944 9.7884 8.99719 10.0606C8.87862 10.2059 8.8655 10.4103 8.96525 10.5692C9.7335 11.7995 10.1229 13.1239 10.1229 14.5056C10.1229 16.2952 9.37256 17.5885 8.76969 18.6293C8.17906 19.6456 7.81769 20.3204 7.81769 21.3393C7.81769 23.6971 11.1059 24.4713 12.1139 24.652C14.2402 25.0341 16.0969 25.9353 17.2799 26.6237C17.3478 26.6636 17.4239 26.6833 17.5 26.6833C17.5757 26.6833 17.6518 26.6636 17.7201 26.6237C18.9031 25.9353 20.7594 25.0341 22.8856 24.652C23.8936 24.4713 27.1819 23.6971 27.1819 21.3393C27.1819 20.3204 26.8205 19.6456 26.2299 18.628C25.627 17.5885 24.8767 16.2952 24.8767 14.5056ZM23.1849 26.3187C20.5026 26.801 18.2538 28.2435 17.5 28.7718C16.7457 28.2435 14.497 26.801 11.8147 26.3187C6.53494 25.3703 6.125 22.2676 6.125 21.3393C6.125 19.8123 6.72481 18.779 7.30494 17.7789C7.85794 16.8261 8.42975 15.8405 8.42975 14.5056C8.42975 12.3969 7.21219 10.9075 6.6115 10.3013C7.24325 9.5328 8.83925 7.58693 9.62631 6.57285C10.8189 7.69853 12.2054 8.31258 13.5761 8.31258C15.0977 8.31258 16.3559 7.69328 17.5 6.37196C18.6436 7.69328 19.9019 8.31258 21.4235 8.31258C22.7942 8.31258 24.1806 7.69853 25.3737 6.57285C26.1607 7.58693 27.7563 9.5328 28.3881 10.3013C27.7874 10.9075 26.5698 12.3969 26.5698 14.5056C26.5698 15.8405 27.1421 16.8261 27.6946 17.7789C28.2752 18.779 28.875 19.8123 28.875 21.3393C28.875 22.2676 28.4646 25.3703 23.1849 26.3187ZM28.4515 17.3399C27.9112 16.4086 27.4448 15.6046 27.4448 14.5056C27.4448 12.1921 29.2456 10.6957 29.2631 10.6817C29.3536 10.6082 29.4114 10.5014 29.4236 10.3849C29.435 10.2685 29.4 10.1525 29.3256 10.0624C29.2963 10.0274 26.4285 6.55053 25.7714 5.64981C25.6944 5.54433 25.5749 5.47868 25.4446 5.4708C25.3138 5.46117 25.1878 5.51326 25.0985 5.60867C23.996 6.78775 22.6914 7.43725 21.4235 7.43725C20.0217 7.43725 18.9193 6.81269 17.8474 5.41216C17.6816 5.19595 17.3184 5.19595 17.1526 5.41216C16.0803 6.81269 14.9778 7.43725 13.5761 7.43725C12.3082 7.43725 11.0036 6.78775 9.90106 5.60867C9.81181 5.51326 9.68494 5.45899 9.555 5.4708C9.42506 5.47868 9.30519 5.54433 9.22819 5.64981C8.57106 6.55053 5.70325 10.0274 5.67394 10.0624C5.6 10.1525 5.565 10.2685 5.57681 10.3845C5.58819 10.5005 5.6455 10.6073 5.73562 10.6808C5.754 10.6957 7.55475 12.1921 7.55475 14.5056C7.55475 15.6046 7.08837 16.4086 6.54806 17.3399C5.9395 18.3886 5.25 19.5768 5.25 21.3393C5.25 24.2756 7.64619 26.4592 11.6602 27.1805C14.6821 27.7236 17.2086 29.6401 17.2336 29.6598C17.3119 29.7198 17.4059 29.75 17.5 29.75C17.5936 29.75 17.6877 29.7198 17.7664 29.6594C17.7918 29.6401 20.3096 27.7249 23.3393 27.1805C27.3534 26.4592 29.75 24.2756 29.75 21.3393C29.75 19.5768 29.0601 18.3886 28.4515 17.3399Z" fill="white"/>
<defs>
<linearGradient id="paint0_linear_12_268" x1="0" y1="3500" x2="3500" y2="0" gradientUnits="userSpaceOnUse">
<stop stop-color="#4D27A8"/>
<stop offset="1" stop-color="#A166FF"/>
</linearGradient>
</defs>
</svg>
