<svg width="41" height="24" viewBox="0 0 41 24" fill="none" xmlns="http://www.w3.org/2000/svg">
<path d="M20.3385 0C14.9149 0 11.5252 2.66667 10.1693 8C12.2031 5.33333 14.576 4.33333 17.2878 5C18.835 5.38037 19.9409 6.48415 21.165 7.706C23.159 9.69637 25.4669 12 30.5078 12C35.9314 12 39.3212 9.33333 40.6771 4C38.6432 6.66667 36.2704 7.66667 33.5586 7C32.0114 6.61963 30.9055 5.51585 29.6814 4.294C27.6873 2.30363 25.3794 0 20.3385 0ZM10.1693 12C4.74566 12 1.3559 14.6667 0 20C2.03385 17.3333 4.40668 16.3333 7.11849 17C8.66572 17.3804 9.77161 18.4841 10.9957 19.706C12.9898 21.6964 15.2977 24 20.3385 24C25.7622 24 29.1519 21.3333 30.5078 16C28.474 18.6667 26.1011 19.6667 23.3893 19C21.8421 18.6196 20.7362 17.5159 19.5121 16.294C17.518 14.3036 15.2101 12 10.1693 12Z" fill="url(#paint0_linear_12_235)"/>
<defs>
<linearGradient id="paint0_linear_12_235" x1="-112.992" y1="768" x2="3370.47" y2="2810.48" gradientUnits="userSpaceOnUse">
<stop stop-color="#2298BD"/>
<stop offset="1" stop-color="#0ED7B5"/>
</linearGradient>
</defs>
</svg>
