<svg width="22" height="24" viewBox="0 0 22 24" fill="none" xmlns="http://www.w3.org/2000/svg">
<path fill-rule="evenodd" clip-rule="evenodd" d="M13.9766 2.51375C15.4501 3.00524 16.2462 4.59812 15.7547 6.07165C15.7149 6.19102 15.6679 6.30558 15.6143 6.41532C16.8903 7.1363 17.5197 8.68125 17.0386 10.1236C16.8834 10.5888 16.6292 10.9933 16.3076 11.3215C17.7112 12.228 18.3812 13.9994 17.8281 15.6577C17.1728 17.6225 15.0487 18.6837 13.0843 18.0285L10.7257 17.2419L10.1198 17.0397L8.83442 20.8935C8.67061 21.3846 8.13976 21.6501 7.64845 21.4862C7.15715 21.3224 6.89194 20.7914 7.05575 20.3003L8.34114 16.4465L7.15536 16.051L5.37669 15.4577C3.41186 14.8024 2.35052 12.6787 3.00587 10.7139C3.55899 9.05555 5.15817 8.04108 6.82493 8.15866C6.76474 7.70309 6.80429 7.22697 6.95946 6.76175C7.44053 5.31945 8.87129 4.46162 10.3246 4.65097C10.3477 4.53107 10.3788 4.41124 10.4187 4.29187C10.9101 2.81834 12.503 2.02227 13.9766 2.51375ZM8.24153 20.6958L8.52122 19.8572L9.52692 16.842L11.5624 10.7394L12.353 10.3442L14.214 9.41422C14.3684 9.33704 14.4309 9.14948 14.3538 8.99504C14.2766 8.84061 14.089 8.77805 13.9346 8.85523L11.842 9.90103L12.7899 7.05931C12.8444 6.89567 12.7559 6.71856 12.5923 6.66399C12.4284 6.60934 12.2515 6.69792 12.197 6.86155L9.2716 15.6322L8.87646 14.8415L7.04059 11.1677C6.96341 11.0133 6.77586 10.9507 6.62142 11.0279C6.46698 11.1051 6.40442 11.2927 6.48161 11.4471L8.99198 16.4705L8.93403 16.6442L7.92833 19.6595L7.64864 20.498C7.59413 20.6615 7.68237 20.8387 7.84621 20.8933C8.00984 20.9479 8.18702 20.8592 8.24153 20.6958Z" fill="#14AE5C"/>
</svg>
