<svg width="40" height="40" viewBox="0 0 40 40" fill="none" xmlns="http://www.w3.org/2000/svg">
<g clip-path="url(#clip0_40_701)">
<path d="M37.5667 10.7C37.3687 9.90902 36.9655 9.18429 36.3978 8.59902C35.8301 8.01374 35.118 7.58865 34.3334 7.36667C31.4667 6.66667 20.0001 6.66667 20.0001 6.66667C20.0001 6.66667 8.53339 6.66667 5.66672 7.43334C4.88214 7.65531 4.17002 8.08041 3.6023 8.66568C3.03458 9.25096 2.63137 9.97569 2.43339 10.7667C1.90875 13.6759 1.65212 16.6272 1.66672 19.5833C1.64802 22.5617 1.90467 25.5355 2.43339 28.4667C2.65166 29.2331 3.0639 29.9302 3.6303 30.4908C4.19669 31.0514 4.89809 31.4564 5.66672 31.6667C8.53339 32.4333 20.0001 32.4333 20.0001 32.4333C20.0001 32.4333 31.4667 32.4333 34.3334 31.6667C35.118 31.4447 35.8301 31.0196 36.3978 30.4343C36.9655 29.8491 37.3687 29.1243 37.5667 28.3333C38.0873 25.446 38.3439 22.5172 38.3334 19.5833C38.3521 16.6049 38.0954 13.6312 37.5667 10.7Z" stroke="#1E1E1E" stroke-width="3.5" stroke-linecap="round" stroke-linejoin="round"/>
<path d="M16.2501 25.0333L25.8334 19.5833L16.2501 14.1333V25.0333Z" stroke="#1E1E1E" stroke-width="3.5" stroke-linecap="round" stroke-linejoin="round"/>
</g>
<defs>
<clipPath id="clip0_40_701">
<rect width="40" height="40" fill="white"/>
</clipPath>
</defs>
</svg>
